<svg xmlns="http://www.w3.org/2000/svg" xmlns:xlink="http://www.w3.org/1999/xlink" width="250" zoomAndPan="magnify" viewBox="0 0 187.5 187.499992" height="250" preserveAspectRatio="xMidYMid meet" version="1.0"><defs><clipPath id="6006c95a2d"><path d="M 0 11.21875 L 182 11.21875 L 182 171 L 0 171 Z M 0 11.21875 " clip-rule="nonzero"/></clipPath></defs><g clip-path="url(#6006c95a2d)"><path fill="#e94e36" d="M 111.519531 11.03125 C 129.644531 35.347656 136.804688 64.269531 130.484375 90.261719 C 130.066406 92.351562 129.222656 94.875 128.382812 96.964844 C 127.042969 96.222656 125.941406 95.535156 124.878906 94.792969 L 125 94.875 C 125 94.875 84.128906 69.726562 40.316406 25.707031 C 39.046875 24.453125 63.910156 60.910156 91.71875 89.839844 C 78.660156 82.289062 41.578125 55.890625 18.394531 34.507812 C 20.929688 39.113281 24.722656 43.726562 28.511719 48.339844 C 47.898438 73.078125 73.183594 103.246094 103.523438 126.300781 C 82.035156 139.308594 52.113281 140.132812 21.769531 126.300781 C 14.179688 122.957031 7.867188 118.761719 0.699219 113.730469 C 13.339844 133.429688 33.148438 151.464844 56.75 161.097656 C 84.980469 173.265625 113.632812 172.421875 134.28125 161.097656 L 134.707031 161.097656 C 135.550781 160.675781 136.390625 160.265625 137.234375 159.421875 C 147.347656 154.386719 167.15625 148.941406 178.109375 169.90625 C 181.054688 175.773438 186.535156 148.527344 165.890625 123.378906 L 165.886719 123.378906 C 166.304688 122.542969 166.304688 121.703125 166.726562 120.867188 C 176.839844 81.457031 152.816406 35.347656 111.519531 11.03125 Z M 111.519531 11.03125 " fill-opacity="1" fill-rule="nonzero"/></g></svg>