<svg xmlns="http://www.w3.org/2000/svg" xmlns:xlink="http://www.w3.org/1999/xlink" width="250" zoomAndPan="magnify" viewBox="0 0 187.5 187.499992" height="250" preserveAspectRatio="xMidYMid meet" version="1.0"><defs><g/><clipPath id="85c24d9f5f"><path d="M 51.347656 96.140625 L 62.316406 96.140625 L 62.316406 107.109375 L 51.347656 107.109375 Z M 51.347656 96.140625 " clip-rule="nonzero"/></clipPath><clipPath id="7859620f30"><path d="M 56.832031 96.140625 C 53.800781 96.140625 51.347656 98.59375 51.347656 101.625 C 51.347656 104.652344 53.800781 107.109375 56.832031 107.109375 C 59.859375 107.109375 62.316406 104.652344 62.316406 101.625 C 62.316406 98.59375 59.859375 96.140625 56.832031 96.140625 Z M 56.832031 96.140625 " clip-rule="nonzero"/></clipPath><clipPath id="0785b95c6f"><path d="M 124.683594 96.140625 L 135.65625 96.140625 L 135.65625 107.109375 L 124.683594 107.109375 Z M 124.683594 96.140625 " clip-rule="nonzero"/></clipPath><clipPath id="b616f31b45"><path d="M 130.167969 96.140625 C 127.140625 96.140625 124.683594 98.59375 124.683594 101.625 C 124.683594 104.652344 127.140625 107.109375 130.167969 107.109375 C 133.199219 107.109375 135.65625 104.652344 135.65625 101.625 C 135.65625 98.59375 133.199219 96.140625 130.167969 96.140625 Z M 130.167969 96.140625 " clip-rule="nonzero"/></clipPath><clipPath id="ad75028143"><path d="M 61.023438 57.445312 L 123 57.445312 L 123 112 L 61.023438 112 Z M 61.023438 57.445312 " clip-rule="nonzero"/></clipPath></defs><g clip-path="url(#85c24d9f5f)"><g clip-path="url(#7859620f30)"><path fill="#fd3952" d="M 51.347656 96.140625 L 62.316406 96.140625 L 62.316406 107.109375 L 51.347656 107.109375 Z M 51.347656 96.140625 " fill-opacity="1" fill-rule="nonzero"/></g></g><g clip-path="url(#0785b95c6f)"><g clip-path="url(#b616f31b45)"><path fill="#fd3952" d="M 124.683594 96.140625 L 135.65625 96.140625 L 135.65625 107.109375 L 124.683594 107.109375 Z M 124.683594 96.140625 " fill-opacity="1" fill-rule="nonzero"/></g></g><g clip-path="url(#ad75028143)"><path fill="#e94e36" d="M 98.9375 57.382812 C 105.101562 65.671875 107.535156 75.53125 105.386719 84.390625 C 105.242188 85.105469 104.957031 85.964844 104.671875 86.675781 C 104.214844 86.421875 103.839844 86.191406 103.480469 85.9375 L 103.519531 85.964844 C 103.519531 85.964844 89.625 77.390625 74.730469 62.382812 C 74.296875 61.957031 82.75 74.386719 92.207031 84.25 C 87.765625 81.675781 75.160156 72.675781 67.277344 65.382812 C 68.140625 66.953125 69.429688 68.527344 70.714844 70.101562 C 77.308594 78.535156 85.902344 88.820312 96.21875 96.675781 C 88.914062 101.113281 78.742188 101.394531 68.425781 96.675781 C 65.84375 95.539062 63.699219 94.109375 61.261719 92.390625 C 65.558594 99.109375 72.292969 105.257812 80.316406 108.539062 C 89.914062 112.6875 99.65625 112.402344 106.675781 108.539062 L 106.820312 108.539062 C 107.109375 108.398438 107.394531 108.257812 107.679688 107.96875 C 111.117188 106.253906 117.851562 104.394531 121.578125 111.542969 C 122.578125 113.542969 124.441406 104.253906 117.421875 95.679688 C 117.5625 95.398438 117.5625 95.109375 117.707031 94.824219 C 121.144531 81.390625 112.976562 65.671875 98.9375 57.382812 Z M 98.9375 57.382812 " fill-opacity="1" fill-rule="nonzero"/></g><g fill="#000000" fill-opacity="1"><g transform="translate(46.901084, 124.548002)"><g><path d="M 0.84375 -1.6875 C 0.550781 -2.039062 0.40625 -2.359375 0.40625 -2.640625 C 0.40625 -2.921875 0.644531 -3.289062 1.125 -3.75 C 1.394531 -4.007812 1.679688 -4.140625 1.984375 -4.140625 C 2.296875 -4.140625 2.726562 -3.867188 3.28125 -3.328125 C 3.425781 -3.140625 3.640625 -2.957031 3.921875 -2.78125 C 4.210938 -2.613281 4.476562 -2.53125 4.71875 -2.53125 C 5.738281 -2.53125 6.25 -2.945312 6.25 -3.78125 C 6.25 -4.03125 6.109375 -4.238281 5.828125 -4.40625 C 5.546875 -4.582031 5.195312 -4.707031 4.78125 -4.78125 C 4.363281 -4.863281 3.914062 -4.988281 3.4375 -5.15625 C 2.957031 -5.320312 2.507812 -5.519531 2.09375 -5.75 C 1.675781 -5.988281 1.328125 -6.351562 1.046875 -6.84375 C 0.765625 -7.34375 0.625 -7.945312 0.625 -8.65625 C 0.625 -9.625 0.984375 -10.460938 1.703125 -11.171875 C 2.421875 -11.890625 3.398438 -12.25 4.640625 -12.25 C 5.296875 -12.25 5.894531 -12.164062 6.4375 -12 C 6.976562 -11.832031 7.351562 -11.660156 7.5625 -11.484375 L 7.984375 -11.171875 C 8.316406 -10.847656 8.484375 -10.578125 8.484375 -10.359375 C 8.484375 -10.140625 8.351562 -9.835938 8.09375 -9.453125 C 7.71875 -8.910156 7.332031 -8.640625 6.9375 -8.640625 C 6.707031 -8.640625 6.425781 -8.75 6.09375 -8.96875 C 6.050781 -8.988281 5.984375 -9.039062 5.890625 -9.125 C 5.804688 -9.21875 5.722656 -9.289062 5.640625 -9.34375 C 5.410156 -9.488281 5.117188 -9.5625 4.765625 -9.5625 C 4.410156 -9.5625 4.113281 -9.472656 3.875 -9.296875 C 3.632812 -9.128906 3.515625 -8.894531 3.515625 -8.59375 C 3.515625 -8.289062 3.65625 -8.046875 3.9375 -7.859375 C 4.21875 -7.671875 4.566406 -7.546875 4.984375 -7.484375 C 5.398438 -7.421875 5.851562 -7.316406 6.34375 -7.171875 C 6.84375 -7.035156 7.300781 -6.867188 7.71875 -6.671875 C 8.132812 -6.484375 8.484375 -6.144531 8.765625 -5.65625 C 9.046875 -5.164062 9.1875 -4.5625 9.1875 -3.84375 C 9.1875 -3.132812 9.039062 -2.507812 8.75 -1.96875 C 8.46875 -1.425781 8.097656 -1.003906 7.640625 -0.703125 C 6.742188 -0.117188 5.789062 0.171875 4.78125 0.171875 C 4.269531 0.171875 3.78125 0.109375 3.3125 -0.015625 C 2.851562 -0.148438 2.484375 -0.3125 2.203125 -0.5 C 1.617188 -0.84375 1.210938 -1.179688 0.984375 -1.515625 Z M 0.84375 -1.6875 "/></g></g></g><g fill="#000000" fill-opacity="1"><g transform="translate(56.49498, 124.548002)"><g><path d="M 15.09375 -12 C 15.820312 -11.726562 16.1875 -11.375 16.1875 -10.9375 C 16.1875 -10.800781 16.125 -10.535156 16 -10.140625 L 12.828125 -1 C 12.804688 -0.925781 12.769531 -0.832031 12.71875 -0.71875 C 12.664062 -0.613281 12.519531 -0.46875 12.28125 -0.28125 C 12.039062 -0.101562 11.757812 -0.015625 11.4375 -0.015625 C 11.113281 -0.015625 10.832031 -0.101562 10.59375 -0.28125 C 10.363281 -0.46875 10.210938 -0.648438 10.140625 -0.828125 L 8.203125 -6.5 C 6.992188 -2.90625 6.375 -1.070312 6.34375 -1 C 6.320312 -0.9375 6.273438 -0.84375 6.203125 -0.71875 C 6.128906 -0.601562 6.039062 -0.492188 5.9375 -0.390625 C 5.6875 -0.140625 5.382812 -0.015625 5.03125 -0.015625 C 4.6875 -0.015625 4.398438 -0.0976562 4.171875 -0.265625 C 3.941406 -0.429688 3.789062 -0.59375 3.71875 -0.75 L 3.609375 -1 L 0.421875 -10.140625 C 0.304688 -10.492188 0.25 -10.757812 0.25 -10.9375 C 0.25 -11.375 0.613281 -11.722656 1.34375 -11.984375 C 1.664062 -12.085938 1.953125 -12.140625 2.203125 -12.140625 C 2.460938 -12.140625 2.660156 -12.050781 2.796875 -11.875 C 2.941406 -11.695312 3.066406 -11.429688 3.171875 -11.078125 L 4.984375 -5.578125 L 6.78125 -10.984375 C 6.9375 -11.453125 7.21875 -11.769531 7.625 -11.9375 C 7.789062 -12.019531 8.015625 -12.0625 8.296875 -12.0625 C 8.578125 -12.0625 8.835938 -11.96875 9.078125 -11.78125 C 9.316406 -11.601562 9.472656 -11.425781 9.546875 -11.25 L 11.4375 -5.546875 L 13.25 -11.078125 C 13.332031 -11.328125 13.398438 -11.507812 13.453125 -11.625 C 13.515625 -11.75 13.617188 -11.867188 13.765625 -11.984375 C 13.910156 -12.097656 14.09375 -12.15625 14.3125 -12.15625 C 14.53125 -12.15625 14.789062 -12.101562 15.09375 -12 Z M 15.09375 -12 "/></g></g></g><g fill="#000000" fill-opacity="1"><g transform="translate(72.934608, 124.548002)"><g><path d="M 0.65625 -10.609375 C 0.65625 -10.859375 0.660156 -11.046875 0.671875 -11.171875 C 0.691406 -11.304688 0.75 -11.453125 0.84375 -11.609375 C 0.988281 -11.910156 1.414062 -12.0625 2.125 -12.0625 C 2.894531 -12.0625 3.347656 -11.859375 3.484375 -11.453125 C 3.535156 -11.265625 3.5625 -10.976562 3.5625 -10.59375 L 3.5625 -1.453125 C 3.5625 -1.179688 3.550781 -0.984375 3.53125 -0.859375 C 3.519531 -0.742188 3.472656 -0.601562 3.390625 -0.4375 C 3.234375 -0.144531 2.804688 0 2.109375 0 C 1.335938 0 0.882812 -0.207031 0.75 -0.625 C 0.6875 -0.800781 0.65625 -1.082031 0.65625 -1.46875 Z M 0.65625 -10.609375 "/></g></g></g><g fill="#000000" fill-opacity="1"><g transform="translate(77.163824, 124.548002)"><g><path d="M 8.640625 -12.0625 C 8.890625 -12.0625 9.078125 -12.050781 9.203125 -12.03125 C 9.328125 -12.019531 9.46875 -11.96875 9.625 -11.875 C 9.789062 -11.789062 9.90625 -11.644531 9.96875 -11.4375 C 10.03125 -11.226562 10.0625 -10.945312 10.0625 -10.59375 C 10.0625 -10.238281 10.03125 -9.957031 9.96875 -9.75 C 9.90625 -9.539062 9.789062 -9.394531 9.625 -9.3125 C 9.457031 -9.238281 9.3125 -9.191406 9.1875 -9.171875 C 9.0625 -9.148438 8.867188 -9.140625 8.609375 -9.140625 L 3.5625 -9.140625 L 3.5625 -7.484375 L 6.8125 -7.484375 C 7.070312 -7.484375 7.265625 -7.472656 7.390625 -7.453125 C 7.515625 -7.441406 7.660156 -7.394531 7.828125 -7.3125 C 8.117188 -7.144531 8.265625 -6.707031 8.265625 -6 C 8.265625 -5.238281 8.054688 -4.785156 7.640625 -4.640625 C 7.460938 -4.585938 7.179688 -4.5625 6.796875 -4.5625 L 3.5625 -4.5625 L 3.5625 -1.453125 C 3.5625 -1.179688 3.550781 -0.984375 3.53125 -0.859375 C 3.519531 -0.742188 3.472656 -0.601562 3.390625 -0.4375 C 3.234375 -0.144531 2.804688 0 2.109375 0 C 1.335938 0 0.882812 -0.207031 0.75 -0.625 C 0.6875 -0.800781 0.65625 -1.082031 0.65625 -1.46875 L 0.65625 -10.609375 C 0.65625 -11.171875 0.757812 -11.550781 0.96875 -11.75 C 1.175781 -11.957031 1.570312 -12.0625 2.15625 -12.0625 Z M 8.640625 -12.0625 "/></g></g></g><g fill="#000000" fill-opacity="1"><g transform="translate(87.646347, 124.548002)"><g><path d="M 1.453125 -12.078125 L 10.59375 -12.078125 C 10.945312 -12.078125 11.203125 -12.035156 11.359375 -11.953125 C 11.523438 -11.867188 11.632812 -11.738281 11.6875 -11.5625 C 11.75 -11.382812 11.78125 -11.15625 11.78125 -10.875 C 11.78125 -10.59375 11.75 -10.363281 11.6875 -10.1875 C 11.632812 -10.019531 11.546875 -9.90625 11.421875 -9.84375 C 11.222656 -9.738281 10.941406 -9.6875 10.578125 -9.6875 L 7.4375 -9.6875 L 7.4375 -1.421875 C 7.4375 -1.160156 7.425781 -0.96875 7.40625 -0.84375 C 7.394531 -0.726562 7.347656 -0.59375 7.265625 -0.4375 C 7.179688 -0.28125 7.035156 -0.164062 6.828125 -0.09375 C 6.617188 -0.03125 6.34375 0 6 0 C 5.664062 0 5.394531 -0.03125 5.1875 -0.09375 C 4.988281 -0.164062 4.847656 -0.28125 4.765625 -0.4375 C 4.679688 -0.59375 4.628906 -0.734375 4.609375 -0.859375 C 4.597656 -0.984375 4.59375 -1.175781 4.59375 -1.4375 L 4.59375 -9.6875 L 1.4375 -9.6875 C 1.082031 -9.6875 0.820312 -9.726562 0.65625 -9.8125 C 0.488281 -9.894531 0.378906 -10.023438 0.328125 -10.203125 C 0.273438 -10.378906 0.25 -10.609375 0.25 -10.890625 C 0.25 -11.171875 0.273438 -11.394531 0.328125 -11.5625 C 0.378906 -11.738281 0.472656 -11.859375 0.609375 -11.921875 C 0.804688 -12.023438 1.085938 -12.078125 1.453125 -12.078125 Z M 1.453125 -12.078125 "/></g></g></g><g fill="#000000" fill-opacity="1"><g transform="translate(99.675745, 124.548002)"><g/></g></g><g fill="#000000" fill-opacity="1"><g transform="translate(103.839132, 124.548002)"><g><path d="M 3.5625 -2.4375 L 8.046875 -2.4375 C 8.410156 -2.4375 8.671875 -2.394531 8.828125 -2.3125 C 8.992188 -2.226562 9.101562 -2.097656 9.15625 -1.921875 C 9.21875 -1.742188 9.25 -1.507812 9.25 -1.21875 C 9.25 -0.9375 9.21875 -0.707031 9.15625 -0.53125 C 9.101562 -0.351562 9.015625 -0.234375 8.890625 -0.171875 C 8.679688 -0.0546875 8.394531 0 8.03125 0 L 2.109375 0 C 1.335938 0 0.882812 -0.207031 0.75 -0.625 C 0.6875 -0.800781 0.65625 -1.082031 0.65625 -1.46875 L 0.65625 -10.609375 C 0.65625 -10.859375 0.660156 -11.046875 0.671875 -11.171875 C 0.691406 -11.304688 0.75 -11.453125 0.84375 -11.609375 C 0.988281 -11.910156 1.414062 -12.0625 2.125 -12.0625 C 2.894531 -12.0625 3.347656 -11.859375 3.484375 -11.453125 C 3.535156 -11.265625 3.5625 -10.976562 3.5625 -10.59375 Z M 3.5625 -2.4375 "/></g></g></g><g fill="#000000" fill-opacity="1"><g transform="translate(113.49885, 124.548002)"><g><path d="M 0.65625 -10.609375 C 0.65625 -10.859375 0.660156 -11.046875 0.671875 -11.171875 C 0.691406 -11.304688 0.75 -11.453125 0.84375 -11.609375 C 0.988281 -11.910156 1.414062 -12.0625 2.125 -12.0625 C 2.894531 -12.0625 3.347656 -11.859375 3.484375 -11.453125 C 3.535156 -11.265625 3.5625 -10.976562 3.5625 -10.59375 L 3.5625 -1.453125 C 3.5625 -1.179688 3.550781 -0.984375 3.53125 -0.859375 C 3.519531 -0.742188 3.472656 -0.601562 3.390625 -0.4375 C 3.234375 -0.144531 2.804688 0 2.109375 0 C 1.335938 0 0.882812 -0.207031 0.75 -0.625 C 0.6875 -0.800781 0.65625 -1.082031 0.65625 -1.46875 Z M 0.65625 -10.609375 "/></g></g></g><g fill="#000000" fill-opacity="1"><g transform="translate(117.728066, 124.548002)"><g><path d="M 8.453125 -11.546875 C 8.554688 -11.742188 8.710938 -11.875 8.921875 -11.9375 C 9.128906 -12.007812 9.390625 -12.046875 9.703125 -12.046875 C 10.015625 -12.046875 10.265625 -12.015625 10.453125 -11.953125 C 10.648438 -11.898438 10.796875 -11.835938 10.890625 -11.765625 C 10.984375 -11.691406 11.050781 -11.578125 11.09375 -11.421875 C 11.15625 -11.242188 11.1875 -10.960938 11.1875 -10.578125 L 11.1875 -1.453125 C 11.1875 -1.179688 11.175781 -0.984375 11.15625 -0.859375 C 11.144531 -0.742188 11.09375 -0.601562 11 -0.4375 C 10.851562 -0.144531 10.425781 0 9.71875 0 C 9.289062 0 8.992188 -0.03125 8.828125 -0.09375 C 8.671875 -0.164062 8.535156 -0.269531 8.421875 -0.40625 C 5.953125 -3.695312 4.328125 -5.847656 3.546875 -6.859375 L 3.546875 -1.453125 C 3.546875 -1.179688 3.535156 -0.984375 3.515625 -0.859375 C 3.503906 -0.742188 3.457031 -0.601562 3.375 -0.4375 C 3.21875 -0.144531 2.789062 0 2.09375 0 C 1.40625 0 0.988281 -0.144531 0.84375 -0.4375 C 0.75 -0.601562 0.691406 -0.75 0.671875 -0.875 C 0.660156 -1.007812 0.65625 -1.207031 0.65625 -1.46875 L 0.65625 -10.640625 C 0.65625 -11.054688 0.707031 -11.359375 0.8125 -11.546875 C 0.914062 -11.742188 1.070312 -11.875 1.28125 -11.9375 C 1.488281 -12.007812 1.753906 -12.046875 2.078125 -12.046875 C 2.410156 -12.046875 2.671875 -12.015625 2.859375 -11.953125 C 3.054688 -11.890625 3.195312 -11.820312 3.28125 -11.75 C 3.320312 -11.71875 3.445312 -11.570312 3.65625 -11.3125 C 5.96875 -8.164062 7.515625 -6.085938 8.296875 -5.078125 L 8.296875 -10.640625 C 8.296875 -11.054688 8.347656 -11.359375 8.453125 -11.546875 Z M 8.453125 -11.546875 "/></g></g></g><g fill="#000000" fill-opacity="1"><g transform="translate(129.576443, 124.548002)"><g><path d="M 5.828125 -6.0625 C 7.503906 -4.445312 8.691406 -3.234375 9.390625 -2.421875 C 9.753906 -2.015625 9.9375 -1.671875 9.9375 -1.390625 C 9.9375 -1.109375 9.71875 -0.773438 9.28125 -0.390625 C 8.84375 -0.015625 8.484375 0.171875 8.203125 0.171875 C 7.921875 0.171875 7.582031 -0.0625 7.1875 -0.53125 L 3.5625 -4.65625 L 3.5625 -1.453125 C 3.5625 -1.179688 3.550781 -0.984375 3.53125 -0.859375 C 3.519531 -0.742188 3.472656 -0.601562 3.390625 -0.4375 C 3.234375 -0.144531 2.804688 0 2.109375 0 C 1.335938 0 0.882812 -0.207031 0.75 -0.625 C 0.6875 -0.800781 0.65625 -1.082031 0.65625 -1.46875 L 0.65625 -10.609375 C 0.65625 -10.859375 0.660156 -11.046875 0.671875 -11.171875 C 0.691406 -11.304688 0.75 -11.453125 0.84375 -11.609375 C 0.988281 -11.910156 1.414062 -12.0625 2.125 -12.0625 C 2.894531 -12.0625 3.347656 -11.859375 3.484375 -11.453125 C 3.535156 -11.265625 3.5625 -10.976562 3.5625 -10.59375 L 3.5625 -7.453125 C 5.0625 -9.128906 6.269531 -10.503906 7.1875 -11.578125 C 7.570312 -12.023438 7.90625 -12.25 8.1875 -12.25 C 8.476562 -12.25 8.84375 -12.0625 9.28125 -11.6875 C 9.71875 -11.3125 9.9375 -10.984375 9.9375 -10.703125 C 9.9375 -10.421875 9.769531 -10.085938 9.4375 -9.703125 C 8.800781 -8.972656 7.816406 -7.96875 6.484375 -6.6875 Z M 5.828125 -6.0625 "/></g></g></g><g fill="#fd3952" fill-opacity="1"><g transform="translate(58.654955, 85.178213)"><g><path d="M -4.3125 -4.734375 C -4.125 -4.929688 -3.957031 -5.023438 -3.8125 -5.015625 C -3.726562 -5.003906 -3.625 -4.9375 -3.5 -4.8125 L -1.5 -3.109375 L -0.234375 -2.953125 C -0.128906 -2.941406 -0.0507812 -2.929688 0 -2.921875 C 0.0507812 -2.910156 0.109375 -2.878906 0.171875 -2.828125 C 0.234375 -2.785156 0.269531 -2.722656 0.28125 -2.640625 C 0.300781 -2.554688 0.300781 -2.441406 0.28125 -2.296875 C 0.269531 -2.148438 0.242188 -2.035156 0.203125 -1.953125 C 0.171875 -1.867188 0.113281 -1.8125 0.03125 -1.78125 C -0.0390625 -1.757812 -0.101562 -1.742188 -0.15625 -1.734375 C -0.207031 -1.734375 -0.285156 -1.742188 -0.390625 -1.765625 L -1.640625 -1.90625 L -3.984375 -0.734375 C -4.140625 -0.648438 -4.257812 -0.613281 -4.34375 -0.625 C -4.488281 -0.632812 -4.617188 -0.75 -4.734375 -0.96875 C -4.847656 -1.1875 -4.898438 -1.335938 -4.890625 -1.421875 C -4.878906 -1.515625 -4.847656 -1.582031 -4.796875 -1.625 C -4.734375 -1.675781 -4.632812 -1.738281 -4.5 -1.8125 L -2.71875 -2.65625 L -4.25 -3.890625 C -4.363281 -3.984375 -4.441406 -4.066406 -4.484375 -4.140625 C -4.523438 -4.210938 -4.539062 -4.289062 -4.53125 -4.375 C -4.519531 -4.457031 -4.445312 -4.578125 -4.3125 -4.734375 Z M -4.3125 -4.734375 "/></g></g></g><g fill="#fd3952" fill-opacity="1"><g transform="translate(59.553893, 78.890405)"><g><path d="M -3.96875 -4 C -3.769531 -4.625 -3.363281 -5.097656 -2.75 -5.421875 C -2.144531 -5.742188 -1.503906 -5.796875 -0.828125 -5.578125 C -0.148438 -5.359375 0.351562 -4.945312 0.6875 -4.34375 C 1.019531 -3.75 1.082031 -3.125 0.875 -2.46875 C 0.664062 -1.820312 0.253906 -1.34375 -0.359375 -1.03125 C -0.984375 -0.726562 -1.617188 -0.679688 -2.265625 -0.890625 C -2.617188 -1.003906 -2.925781 -1.175781 -3.1875 -1.40625 C -3.457031 -1.632812 -3.664062 -1.890625 -3.8125 -2.171875 C -3.957031 -2.453125 -4.046875 -2.753906 -4.078125 -3.078125 C -4.109375 -3.398438 -4.070312 -3.707031 -3.96875 -4 Z M -1.921875 -2.046875 C -1.535156 -1.921875 -1.1875 -1.941406 -0.875 -2.109375 C -0.5625 -2.285156 -0.359375 -2.523438 -0.265625 -2.828125 C -0.171875 -3.140625 -0.195312 -3.453125 -0.34375 -3.765625 C -0.5 -4.078125 -0.769531 -4.296875 -1.15625 -4.421875 C -1.550781 -4.546875 -1.90625 -4.519531 -2.21875 -4.34375 C -2.53125 -4.175781 -2.734375 -3.941406 -2.828125 -3.640625 C -2.929688 -3.335938 -2.898438 -3.023438 -2.734375 -2.703125 C -2.578125 -2.390625 -2.304688 -2.171875 -1.921875 -2.046875 Z M -1.921875 -2.046875 "/></g></g></g><g fill="#fd3952" fill-opacity="1"><g transform="translate(61.844899, 72.336089)"><g><path d="M -2.46875 -5.34375 C -2.507812 -5.425781 -2.519531 -5.507812 -2.5 -5.59375 C -2.488281 -5.675781 -2.453125 -5.773438 -2.390625 -5.890625 C -2.328125 -6.003906 -2.265625 -6.09375 -2.203125 -6.15625 C -2.148438 -6.21875 -2.101562 -6.253906 -2.0625 -6.265625 C -2.019531 -6.285156 -1.96875 -6.289062 -1.90625 -6.28125 C -1.820312 -6.257812 -1.707031 -6.210938 -1.5625 -6.140625 L 0.21875 -5.15625 C 0.726562 -4.875 1.101562 -4.453125 1.34375 -3.890625 C 1.46875 -3.628906 1.519531 -3.34375 1.5 -3.03125 C 1.488281 -2.71875 1.398438 -2.410156 1.234375 -2.109375 C 1.066406 -1.804688 0.851562 -1.5625 0.59375 -1.375 C 0.34375 -1.195312 0.0703125 -1.09375 -0.21875 -1.0625 C -0.820312 -0.96875 -1.382812 -1.0625 -1.90625 -1.34375 L -3.671875 -2.328125 C -3.765625 -2.378906 -3.832031 -2.421875 -3.875 -2.453125 C -3.914062 -2.492188 -3.957031 -2.539062 -4 -2.59375 C -4.039062 -2.65625 -4.050781 -2.726562 -4.03125 -2.8125 C -4.019531 -2.90625 -3.976562 -3.007812 -3.90625 -3.125 C -3.84375 -3.25 -3.773438 -3.34375 -3.703125 -3.40625 C -3.640625 -3.476562 -3.570312 -3.515625 -3.5 -3.515625 C -3.382812 -3.503906 -3.25 -3.457031 -3.09375 -3.375 L -1.328125 -2.390625 C -1.085938 -2.265625 -0.820312 -2.203125 -0.53125 -2.203125 C -0.382812 -2.191406 -0.25 -2.226562 -0.125 -2.3125 C 0 -2.40625 0.109375 -2.535156 0.203125 -2.703125 C 0.359375 -2.984375 0.367188 -3.25 0.234375 -3.5 C 0.109375 -3.757812 -0.0976562 -3.96875 -0.390625 -4.125 L -2.1875 -5.125 C -2.332031 -5.195312 -2.425781 -5.269531 -2.46875 -5.34375 Z M -2.46875 -5.34375 "/></g></g></g><g fill="#fd3952" fill-opacity="1"><g transform="translate(65.209388, 66.617946)"><g><path d="M 1.921875 -3.65625 C 2.078125 -3.601562 2.179688 -3.554688 2.234375 -3.515625 C 2.359375 -3.398438 2.390625 -3.203125 2.328125 -2.921875 C 2.273438 -2.765625 2.21875 -2.648438 2.15625 -2.578125 C 2.101562 -2.515625 2.039062 -2.476562 1.96875 -2.46875 C 1.894531 -2.457031 1.835938 -2.453125 1.796875 -2.453125 C 1.710938 -2.472656 1.289062 -2.597656 0.53125 -2.828125 L 0.421875 -2.65625 L -0.125 -2 L 0.46875 -1.515625 C 0.539062 -1.453125 0.59375 -1.398438 0.625 -1.359375 C 0.65625 -1.316406 0.691406 -1.265625 0.734375 -1.203125 C 0.785156 -1.066406 0.722656 -0.890625 0.546875 -0.671875 C 0.347656 -0.421875 0.171875 -0.332031 0.015625 -0.40625 C -0.078125 -0.425781 -0.179688 -0.488281 -0.296875 -0.59375 L -3.1875 -2.953125 C -3.269531 -3.015625 -3.328125 -3.066406 -3.359375 -3.109375 C -3.398438 -3.148438 -3.4375 -3.203125 -3.46875 -3.265625 C -3.519531 -3.398438 -3.457031 -3.578125 -3.28125 -3.796875 L -2.359375 -4.921875 C -2.109375 -5.234375 -1.753906 -5.4375 -1.296875 -5.53125 C -1.066406 -5.59375 -0.820312 -5.59375 -0.5625 -5.53125 C -0.300781 -5.46875 -0.0625 -5.34375 0.15625 -5.15625 C 0.539062 -4.84375 0.753906 -4.445312 0.796875 -3.96875 C 1.046875 -3.894531 1.421875 -3.789062 1.921875 -3.65625 Z M -1.046875 -2.75 L -0.5 -3.40625 C -0.414062 -3.507812 -0.367188 -3.640625 -0.359375 -3.796875 C -0.359375 -3.960938 -0.4375 -4.109375 -0.59375 -4.234375 C -0.75 -4.359375 -0.90625 -4.40625 -1.0625 -4.375 C -1.226562 -4.34375 -1.351562 -4.273438 -1.4375 -4.171875 L -1.984375 -3.515625 Z M -1.046875 -2.75 "/></g></g></g><g fill="#fd3952" fill-opacity="1"><g transform="translate(69.209422, 62.047721)"><g/></g></g><g fill="#fd3952" fill-opacity="1"><g transform="translate(71.801118, 59.657263)"><g><path d="M 0.171875 -5.890625 C 0.171875 -5.972656 0.195312 -6.050781 0.25 -6.125 C 0.3125 -6.195312 0.394531 -6.269531 0.5 -6.34375 C 0.601562 -6.414062 0.691406 -6.460938 0.765625 -6.484375 C 0.847656 -6.515625 0.910156 -6.523438 0.953125 -6.515625 C 1.003906 -6.515625 1.054688 -6.492188 1.109375 -6.453125 C 1.179688 -6.410156 1.257812 -6.328125 1.34375 -6.203125 L 2.515625 -4.515625 C 2.835938 -4.035156 2.984375 -3.488281 2.953125 -2.875 C 2.941406 -2.582031 2.859375 -2.296875 2.703125 -2.015625 C 2.554688 -1.742188 2.335938 -1.507812 2.046875 -1.3125 C 1.765625 -1.125 1.46875 -1.003906 1.15625 -0.953125 C 0.851562 -0.910156 0.554688 -0.941406 0.265625 -1.046875 C -0.304688 -1.234375 -0.757812 -1.570312 -1.09375 -2.0625 L -2.25 -3.734375 C -2.300781 -3.816406 -2.335938 -3.878906 -2.359375 -3.921875 C -2.378906 -3.972656 -2.394531 -4.035156 -2.40625 -4.109375 C -2.425781 -4.179688 -2.40625 -4.253906 -2.34375 -4.328125 C -2.28125 -4.398438 -2.191406 -4.472656 -2.078125 -4.546875 C -1.960938 -4.628906 -1.863281 -4.6875 -1.78125 -4.71875 C -1.695312 -4.75 -1.625 -4.75 -1.5625 -4.71875 C -1.457031 -4.65625 -1.359375 -4.550781 -1.265625 -4.40625 L -0.109375 -2.734375 C 0.046875 -2.503906 0.25 -2.332031 0.5 -2.21875 C 0.625 -2.144531 0.757812 -2.113281 0.90625 -2.125 C 1.0625 -2.144531 1.21875 -2.207031 1.375 -2.3125 C 1.644531 -2.5 1.773438 -2.734375 1.765625 -3.015625 C 1.765625 -3.304688 1.671875 -3.585938 1.484375 -3.859375 L 0.3125 -5.546875 C 0.21875 -5.691406 0.171875 -5.804688 0.171875 -5.890625 Z M 0.171875 -5.890625 "/></g></g></g><g fill="#fd3952" fill-opacity="1"><g transform="translate(77.367606, 56.04678)"><g><path d="M 3.34375 -2.40625 C 3.46875 -2.300781 3.546875 -2.210938 3.578125 -2.140625 C 3.648438 -1.992188 3.585938 -1.804688 3.390625 -1.578125 C 3.273438 -1.453125 3.175781 -1.367188 3.09375 -1.328125 C 3.019531 -1.296875 2.945312 -1.289062 2.875 -1.3125 C 2.8125 -1.332031 2.757812 -1.359375 2.71875 -1.390625 C 2.644531 -1.441406 2.316406 -1.738281 1.734375 -2.28125 L 1.546875 -2.1875 L 0.78125 -1.84375 L 1.09375 -1.15625 C 1.132812 -1.0625 1.160156 -0.988281 1.171875 -0.9375 C 1.179688 -0.882812 1.1875 -0.820312 1.1875 -0.75 C 1.1875 -0.601562 1.050781 -0.472656 0.78125 -0.359375 C 0.5 -0.222656 0.296875 -0.222656 0.171875 -0.359375 C 0.109375 -0.421875 0.046875 -0.523438 -0.015625 -0.671875 L -1.546875 -4.0625 C -1.585938 -4.164062 -1.613281 -4.242188 -1.625 -4.296875 C -1.632812 -4.347656 -1.640625 -4.40625 -1.640625 -4.46875 C -1.628906 -4.613281 -1.492188 -4.742188 -1.234375 -4.859375 L 0.09375 -5.453125 C 0.445312 -5.617188 0.851562 -5.644531 1.3125 -5.53125 C 1.539062 -5.488281 1.753906 -5.378906 1.953125 -5.203125 C 2.160156 -5.035156 2.320312 -4.816406 2.4375 -4.546875 C 2.644531 -4.085938 2.664062 -3.632812 2.5 -3.1875 C 2.6875 -3.007812 2.96875 -2.75 3.34375 -2.40625 Z M 0.296875 -2.9375 L 1.078125 -3.28125 C 1.191406 -3.332031 1.285156 -3.425781 1.359375 -3.5625 C 1.441406 -3.707031 1.441406 -3.867188 1.359375 -4.046875 C 1.285156 -4.234375 1.164062 -4.347656 1 -4.390625 C 0.832031 -4.429688 0.6875 -4.425781 0.5625 -4.375 L -0.203125 -4.03125 Z M 0.296875 -2.9375 "/></g></g></g><g fill="#fd3952" fill-opacity="1"><g transform="translate(82.920681, 53.721628)"><g><path d="M 1.171875 -1.34375 L 2.9375 -1.796875 C 3.082031 -1.835938 3.191406 -1.847656 3.265625 -1.828125 C 3.335938 -1.804688 3.390625 -1.765625 3.421875 -1.703125 C 3.460938 -1.648438 3.5 -1.5625 3.53125 -1.4375 C 3.5625 -1.320312 3.570312 -1.226562 3.5625 -1.15625 C 3.5625 -1.082031 3.539062 -1.023438 3.5 -0.984375 C 3.4375 -0.921875 3.328125 -0.867188 3.171875 -0.828125 L 0.828125 -0.21875 C 0.523438 -0.132812 0.328125 -0.164062 0.234375 -0.3125 C 0.179688 -0.375 0.132812 -0.484375 0.09375 -0.640625 L -0.84375 -4.265625 C -0.875 -4.367188 -0.890625 -4.445312 -0.890625 -4.5 C -0.890625 -4.550781 -0.882812 -4.613281 -0.875 -4.6875 C -0.84375 -4.820312 -0.6875 -4.925781 -0.40625 -5 C -0.101562 -5.082031 0.09375 -5.046875 0.1875 -4.890625 C 0.238281 -4.828125 0.285156 -4.722656 0.328125 -4.578125 Z M 1.171875 -1.34375 "/></g></g></g><g fill="#fd3952" fill-opacity="1"><g transform="translate(88.565247, 52.450881)"><g/></g></g><g fill="#fd3952" fill-opacity="1"><g transform="translate(92.091224, 52.066591)"><g><path d="M 0.34375 -0.6875 C 0.238281 -0.832031 0.1875 -0.960938 0.1875 -1.078125 C 0.1875 -1.191406 0.28125 -1.34375 0.46875 -1.53125 C 0.582031 -1.644531 0.703125 -1.695312 0.828125 -1.6875 C 0.953125 -1.6875 1.128906 -1.570312 1.359375 -1.34375 C 1.421875 -1.269531 1.507812 -1.195312 1.625 -1.125 C 1.738281 -1.050781 1.847656 -1.015625 1.953125 -1.015625 C 2.367188 -1.003906 2.578125 -1.171875 2.578125 -1.515625 C 2.578125 -1.617188 2.519531 -1.703125 2.40625 -1.765625 C 2.289062 -1.835938 2.144531 -1.890625 1.96875 -1.921875 C 1.800781 -1.960938 1.617188 -2.019531 1.421875 -2.09375 C 1.234375 -2.164062 1.050781 -2.25 0.875 -2.34375 C 0.707031 -2.445312 0.566406 -2.597656 0.453125 -2.796875 C 0.335938 -3.003906 0.28125 -3.253906 0.28125 -3.546875 C 0.289062 -3.941406 0.441406 -4.28125 0.734375 -4.5625 C 1.035156 -4.851562 1.441406 -5 1.953125 -5 C 2.210938 -4.988281 2.453125 -4.945312 2.671875 -4.875 C 2.898438 -4.8125 3.054688 -4.742188 3.140625 -4.671875 L 3.3125 -4.546875 C 3.445312 -4.410156 3.515625 -4.296875 3.515625 -4.203125 C 3.515625 -4.117188 3.460938 -4 3.359375 -3.84375 C 3.191406 -3.613281 3.03125 -3.5 2.875 -3.5 C 2.78125 -3.5 2.664062 -3.546875 2.53125 -3.640625 C 2.519531 -3.648438 2.492188 -3.671875 2.453125 -3.703125 C 2.421875 -3.742188 2.390625 -3.773438 2.359375 -3.796875 C 2.265625 -3.859375 2.144531 -3.890625 2 -3.890625 C 1.851562 -3.890625 1.726562 -3.851562 1.625 -3.78125 C 1.53125 -3.71875 1.476562 -3.625 1.46875 -3.5 C 1.46875 -3.375 1.523438 -3.273438 1.640625 -3.203125 C 1.753906 -3.128906 1.894531 -3.078125 2.0625 -3.046875 C 2.238281 -3.015625 2.425781 -2.96875 2.625 -2.90625 C 2.832031 -2.851562 3.019531 -2.785156 3.1875 -2.703125 C 3.363281 -2.617188 3.503906 -2.472656 3.609375 -2.265625 C 3.710938 -2.066406 3.765625 -1.820312 3.765625 -1.53125 C 3.765625 -1.238281 3.703125 -0.984375 3.578125 -0.765625 C 3.460938 -0.546875 3.3125 -0.378906 3.125 -0.265625 C 2.757812 -0.0234375 2.367188 0.0859375 1.953125 0.078125 C 1.742188 0.078125 1.546875 0.0507812 1.359375 0 C 1.171875 -0.0507812 1.019531 -0.113281 0.90625 -0.1875 C 0.664062 -0.34375 0.5 -0.488281 0.40625 -0.625 Z M 0.34375 -0.6875 "/></g></g></g><g fill="#fd3952" fill-opacity="1"><g transform="translate(97.778046, 52.246819)"><g><path d="M 4.125 -4.0625 C 4.175781 -4.125 4.242188 -4.160156 4.328125 -4.171875 C 4.421875 -4.191406 4.53125 -4.1875 4.65625 -4.15625 C 4.789062 -4.132812 4.890625 -4.101562 4.953125 -4.0625 C 5.023438 -4.03125 5.078125 -3.992188 5.109375 -3.953125 C 5.148438 -3.921875 5.175781 -3.867188 5.1875 -3.796875 C 5.195312 -3.722656 5.1875 -3.609375 5.15625 -3.453125 L 4.46875 0.234375 C 4.445312 0.328125 4.425781 0.394531 4.40625 0.4375 C 4.394531 0.488281 4.363281 0.546875 4.3125 0.609375 C 4.226562 0.722656 4.050781 0.753906 3.78125 0.703125 C 3.457031 0.640625 3.285156 0.519531 3.265625 0.34375 C 3.253906 0.257812 3.265625 0.144531 3.296875 0 L 3.546875 -1.34375 L 1.796875 -1.671875 L 1.546875 -0.3125 C 1.523438 -0.21875 1.503906 -0.144531 1.484375 -0.09375 C 1.460938 -0.0507812 1.429688 0 1.390625 0.0625 C 1.316406 0.175781 1.132812 0.207031 0.84375 0.15625 C 0.539062 0.101562 0.378906 -0.0078125 0.359375 -0.1875 C 0.335938 -0.28125 0.34375 -0.398438 0.375 -0.546875 L 1.0625 -4.21875 C 1.082031 -4.320312 1.101562 -4.398438 1.125 -4.453125 C 1.144531 -4.503906 1.175781 -4.554688 1.21875 -4.609375 C 1.300781 -4.722656 1.484375 -4.753906 1.765625 -4.703125 C 2.078125 -4.640625 2.238281 -4.519531 2.25 -4.34375 C 2.269531 -4.269531 2.265625 -4.15625 2.234375 -4 L 1.984375 -2.65625 L 3.734375 -2.328125 L 3.984375 -3.671875 C 4.003906 -3.773438 4.019531 -3.851562 4.03125 -3.90625 C 4.050781 -3.957031 4.082031 -4.007812 4.125 -4.0625 Z M 4.125 -4.0625 "/></g></g></g><g fill="#fd3952" fill-opacity="1"><g transform="translate(104.079986, 53.564253)"><g><path d="M 4.234375 -3.703125 C 4.847656 -3.460938 5.296875 -3.03125 5.578125 -2.40625 C 5.867188 -1.78125 5.878906 -1.132812 5.609375 -0.46875 C 5.347656 0.1875 4.910156 0.664062 4.296875 0.96875 C 3.679688 1.269531 3.054688 1.296875 2.421875 1.046875 C 1.785156 0.796875 1.332031 0.351562 1.0625 -0.28125 C 0.800781 -0.925781 0.796875 -1.5625 1.046875 -2.1875 C 1.179688 -2.539062 1.367188 -2.835938 1.609375 -3.078125 C 1.859375 -3.328125 2.125 -3.515625 2.40625 -3.640625 C 2.695312 -3.773438 3.003906 -3.847656 3.328125 -3.859375 C 3.648438 -3.867188 3.953125 -3.816406 4.234375 -3.703125 Z M 2.171875 -1.78125 C 2.023438 -1.414062 2.023438 -1.066406 2.171875 -0.734375 C 2.316406 -0.410156 2.535156 -0.1875 2.828125 -0.0625 C 3.128906 0.0507812 3.441406 0.0390625 3.765625 -0.09375 C 4.097656 -0.226562 4.335938 -0.484375 4.484375 -0.859375 C 4.640625 -1.234375 4.640625 -1.585938 4.484375 -1.921875 C 4.328125 -2.253906 4.101562 -2.476562 3.8125 -2.59375 C 3.519531 -2.707031 3.207031 -2.691406 2.875 -2.546875 C 2.550781 -2.410156 2.316406 -2.15625 2.171875 -1.78125 Z M 2.171875 -1.78125 "/></g></g></g><g fill="#fd3952" fill-opacity="1"><g transform="translate(110.473307, 56.303728)"><g><path d="M 3.859375 1.453125 C 3.835938 1.617188 3.804688 1.734375 3.765625 1.796875 C 3.679688 1.929688 3.488281 1.976562 3.1875 1.9375 C 3.03125 1.925781 2.910156 1.894531 2.828125 1.84375 C 2.753906 1.789062 2.707031 1.726562 2.6875 1.65625 C 2.664062 1.59375 2.65625 1.539062 2.65625 1.5 C 2.675781 1.394531 2.742188 0.953125 2.859375 0.171875 L 2.671875 0.078125 L 1.96875 -0.375 L 1.5625 0.28125 C 1.507812 0.363281 1.460938 0.421875 1.421875 0.453125 C 1.390625 0.492188 1.335938 0.535156 1.265625 0.578125 C 1.148438 0.648438 0.972656 0.609375 0.734375 0.453125 C 0.460938 0.285156 0.347656 0.117188 0.390625 -0.046875 C 0.410156 -0.128906 0.460938 -0.238281 0.546875 -0.375 L 2.53125 -3.546875 C 2.582031 -3.628906 2.625 -3.6875 2.65625 -3.71875 C 2.695312 -3.757812 2.75 -3.800781 2.8125 -3.84375 C 2.9375 -3.914062 3.117188 -3.875 3.359375 -3.71875 L 4.59375 -2.953125 C 4.925781 -2.742188 5.171875 -2.414062 5.328125 -1.96875 C 5.410156 -1.757812 5.4375 -1.519531 5.40625 -1.25 C 5.382812 -0.988281 5.296875 -0.734375 5.140625 -0.484375 C 4.867188 -0.0664062 4.503906 0.191406 4.046875 0.296875 C 3.992188 0.554688 3.929688 0.941406 3.859375 1.453125 Z M 2.609375 -1.375 L 3.328125 -0.921875 C 3.429688 -0.847656 3.566406 -0.816406 3.734375 -0.828125 C 3.898438 -0.847656 4.035156 -0.941406 4.140625 -1.109375 C 4.242188 -1.273438 4.265625 -1.4375 4.203125 -1.59375 C 4.140625 -1.75 4.050781 -1.863281 3.9375 -1.9375 L 3.234375 -2.390625 Z M 2.609375 -1.375 "/></g></g></g><g fill="#fd3952" fill-opacity="1"><g transform="translate(115.486878, 59.598588)"><g><path d="M 3.765625 -3.234375 L 6.53125 -0.703125 C 6.632812 -0.617188 6.695312 -0.539062 6.71875 -0.46875 C 6.75 -0.40625 6.75 -0.332031 6.71875 -0.25 C 6.695312 -0.175781 6.644531 -0.0976562 6.5625 -0.015625 C 6.488281 0.0664062 6.414062 0.125 6.34375 0.15625 C 6.269531 0.1875 6.210938 0.195312 6.171875 0.1875 C 6.078125 0.15625 5.972656 0.09375 5.859375 0 L 4.921875 -0.859375 L 2.640625 1.640625 C 2.566406 1.710938 2.507812 1.765625 2.46875 1.796875 C 2.4375 1.828125 2.382812 1.851562 2.3125 1.875 C 2.238281 1.894531 2.160156 1.882812 2.078125 1.84375 C 2.003906 1.8125 1.914062 1.75 1.8125 1.65625 C 1.707031 1.5625 1.628906 1.472656 1.578125 1.390625 C 1.535156 1.316406 1.523438 1.242188 1.546875 1.171875 C 1.578125 1.109375 1.609375 1.050781 1.640625 1 C 1.671875 0.957031 1.71875 0.90625 1.78125 0.84375 L 4.0625 -1.65625 L 3.09375 -2.53125 C 3 -2.625 2.9375 -2.707031 2.90625 -2.78125 C 2.875 -2.851562 2.875 -2.921875 2.90625 -2.984375 C 2.9375 -3.054688 2.988281 -3.132812 3.0625 -3.21875 C 3.144531 -3.3125 3.21875 -3.375 3.28125 -3.40625 C 3.351562 -3.445312 3.421875 -3.453125 3.484375 -3.421875 C 3.566406 -3.398438 3.660156 -3.335938 3.765625 -3.234375 Z M 3.765625 -3.234375 "/></g></g></g><g fill="#fd3952" fill-opacity="1"><g transform="translate(120.278118, 64.234143)"><g><path d="M 1.84375 0.453125 L 3.09375 2.09375 C 3.15625 2.175781 3.195312 2.238281 3.21875 2.28125 C 3.25 2.332031 3.269531 2.398438 3.28125 2.484375 C 3.300781 2.597656 3.191406 2.742188 2.953125 2.921875 C 2.703125 3.109375 2.507812 3.15625 2.375 3.0625 C 2.3125 3.019531 2.234375 2.9375 2.140625 2.8125 L 0.515625 0.6875 C 0.328125 0.4375 0.285156 0.238281 0.390625 0.09375 C 0.421875 0.03125 0.5 -0.046875 0.625 -0.140625 L 3.625 -2.40625 C 3.800781 -2.539062 3.953125 -2.597656 4.078125 -2.578125 C 4.203125 -2.566406 4.332031 -2.46875 4.46875 -2.28125 L 6.078125 -0.171875 C 6.140625 -0.0859375 6.179688 -0.0234375 6.203125 0.015625 C 6.234375 0.0664062 6.253906 0.132812 6.265625 0.21875 C 6.273438 0.34375 6.171875 0.488281 5.953125 0.65625 C 5.691406 0.851562 5.492188 0.90625 5.359375 0.8125 C 5.296875 0.757812 5.21875 0.671875 5.125 0.546875 L 3.875 -1.09375 L 3.328125 -0.671875 L 4.125 0.390625 C 4.1875 0.472656 4.226562 0.535156 4.25 0.578125 C 4.28125 0.617188 4.300781 0.675781 4.3125 0.75 C 4.332031 0.882812 4.234375 1.039062 4.015625 1.21875 C 3.765625 1.40625 3.5625 1.441406 3.40625 1.328125 C 3.351562 1.296875 3.28125 1.21875 3.1875 1.09375 L 2.390625 0.046875 Z M 1.84375 0.453125 "/></g></g></g><g fill="#fd3952" fill-opacity="1"><g transform="translate(123.822487, 69.133579)"><g><path d="M 5.78125 0.953125 C 5.875 0.953125 5.945312 0.984375 6 1.046875 C 6.0625 1.117188 6.117188 1.207031 6.171875 1.3125 C 6.234375 1.425781 6.273438 1.523438 6.296875 1.609375 C 6.316406 1.691406 6.316406 1.753906 6.296875 1.796875 C 6.285156 1.847656 6.257812 1.894531 6.21875 1.9375 C 6.164062 1.988281 6.066406 2.050781 5.921875 2.125 L 2.59375 3.8125 C 2.5 3.851562 2.425781 3.882812 2.375 3.90625 C 2.332031 3.9375 2.273438 3.945312 2.203125 3.9375 C 2.054688 3.9375 1.921875 3.8125 1.796875 3.5625 C 1.710938 3.394531 1.664062 3.273438 1.65625 3.203125 C 1.65625 3.140625 1.675781 3.070312 1.71875 3 C 2.457031 1.5 2.941406 0.507812 3.171875 0.03125 L 1.1875 1.03125 C 1.09375 1.070312 1.019531 1.101562 0.96875 1.125 C 0.925781 1.144531 0.867188 1.15625 0.796875 1.15625 C 0.648438 1.144531 0.515625 1.015625 0.390625 0.765625 C 0.265625 0.515625 0.242188 0.335938 0.328125 0.234375 C 0.367188 0.171875 0.410156 0.117188 0.453125 0.078125 C 0.492188 0.046875 0.5625 0.0078125 0.65625 -0.03125 L 4.015625 -1.734375 C 4.160156 -1.804688 4.273438 -1.84375 4.359375 -1.84375 C 4.453125 -1.84375 4.53125 -1.804688 4.59375 -1.734375 C 4.65625 -1.671875 4.71875 -1.578125 4.78125 -1.453125 C 4.84375 -1.328125 4.878906 -1.222656 4.890625 -1.140625 C 4.910156 -1.066406 4.914062 -1.007812 4.90625 -0.96875 C 4.882812 -0.945312 4.851562 -0.875 4.8125 -0.75 C 4.082031 0.675781 3.609375 1.625 3.390625 2.09375 L 5.421875 1.0625 C 5.566406 0.988281 5.6875 0.953125 5.78125 0.953125 Z M 5.78125 0.953125 "/></g></g></g><g fill="#fd3952" fill-opacity="1"><g transform="translate(126.634051, 75.098269)"><g><path d="M 1.5625 1.0625 L 2.140625 3.046875 C 2.171875 3.140625 2.191406 3.210938 2.203125 3.265625 C 2.210938 3.328125 2.210938 3.398438 2.203125 3.484375 C 2.171875 3.597656 2.015625 3.695312 1.734375 3.78125 C 1.441406 3.875 1.242188 3.847656 1.140625 3.703125 C 1.085938 3.640625 1.039062 3.535156 1 3.390625 L 0.25 0.828125 C 0.15625 0.523438 0.179688 0.320312 0.328125 0.21875 C 0.390625 0.164062 0.492188 0.117188 0.640625 0.078125 L 4.25 -0.984375 C 4.46875 -1.046875 4.628906 -1.046875 4.734375 -0.984375 C 4.835938 -0.921875 4.921875 -0.78125 4.984375 -0.5625 L 5.734375 1.984375 C 5.765625 2.078125 5.785156 2.148438 5.796875 2.203125 C 5.804688 2.265625 5.800781 2.335938 5.78125 2.421875 C 5.75 2.535156 5.601562 2.632812 5.34375 2.71875 C 5.03125 2.8125 4.820312 2.785156 4.71875 2.640625 C 4.675781 2.578125 4.632812 2.472656 4.59375 2.328125 L 4.015625 0.34375 L 3.359375 0.53125 L 3.734375 1.8125 C 3.765625 1.90625 3.78125 1.976562 3.78125 2.03125 C 3.789062 2.09375 3.785156 2.160156 3.765625 2.234375 C 3.742188 2.367188 3.601562 2.472656 3.34375 2.546875 C 3.039062 2.640625 2.832031 2.609375 2.71875 2.453125 C 2.675781 2.390625 2.628906 2.285156 2.578125 2.140625 L 2.21875 0.875 Z M 1.5625 1.0625 "/></g></g></g><g fill="#fd3952" fill-opacity="1"><g transform="translate(128.204555, 80.950486)"><g><path d="M 1.296875 3.921875 C 1.140625 4.003906 1.023438 4.046875 0.953125 4.046875 C 0.785156 4.066406 0.625 3.953125 0.46875 3.703125 C 0.394531 3.566406 0.351562 3.453125 0.34375 3.359375 C 0.332031 3.273438 0.347656 3.203125 0.390625 3.140625 C 0.429688 3.078125 0.46875 3.035156 0.5 3.015625 C 0.582031 2.960938 0.96875 2.738281 1.65625 2.34375 L 1.609375 2.140625 L 1.515625 1.296875 L 0.765625 1.390625 C 0.660156 1.398438 0.582031 1.398438 0.53125 1.390625 C 0.488281 1.390625 0.425781 1.378906 0.34375 1.359375 C 0.21875 1.304688 0.132812 1.140625 0.09375 0.859375 C 0.0625 0.546875 0.125 0.351562 0.28125 0.28125 C 0.363281 0.238281 0.484375 0.210938 0.640625 0.203125 L 4.34375 -0.234375 C 4.445312 -0.242188 4.523438 -0.242188 4.578125 -0.234375 C 4.628906 -0.234375 4.691406 -0.222656 4.765625 -0.203125 C 4.890625 -0.148438 4.96875 0.0195312 5 0.3125 L 5.171875 1.75 C 5.222656 2.144531 5.125 2.539062 4.875 2.9375 C 4.757812 3.125 4.585938 3.289062 4.359375 3.4375 C 4.128906 3.582031 3.875 3.671875 3.59375 3.703125 C 3.09375 3.753906 2.65625 3.632812 2.28125 3.34375 C 2.050781 3.46875 1.722656 3.660156 1.296875 3.921875 Z M 2.703125 1.15625 L 2.796875 2.015625 C 2.816406 2.140625 2.878906 2.257812 2.984375 2.375 C 3.097656 2.5 3.253906 2.550781 3.453125 2.53125 C 3.648438 2.507812 3.789062 2.425781 3.875 2.28125 C 3.96875 2.132812 4.003906 1.992188 3.984375 1.859375 L 3.890625 1.015625 Z M 2.703125 1.15625 "/></g></g></g><g fill="#ff3131" fill-opacity="1"><g transform="translate(77.877386, 131.364271)"><g><path d="M 2.171875 -2.171875 C 2.234375 -2.046875 2.265625 -1.898438 2.265625 -1.734375 C 2.265625 -1.578125 2.234375 -1.429688 2.171875 -1.296875 C 2.109375 -1.171875 2.023438 -1.070312 1.921875 -1 C 1.710938 -0.832031 1.5 -0.75 1.28125 -0.75 L 0.8125 -0.75 L 0.8125 -0.328125 C 0.8125 -0.273438 0.804688 -0.234375 0.796875 -0.203125 C 0.796875 -0.171875 0.785156 -0.140625 0.765625 -0.109375 C 0.734375 -0.0351562 0.640625 0 0.484375 0 C 0.304688 0 0.203125 -0.046875 0.171875 -0.140625 C 0.160156 -0.179688 0.15625 -0.25 0.15625 -0.34375 L 0.15625 -2.40625 C 0.15625 -2.46875 0.15625 -2.507812 0.15625 -2.53125 C 0.15625 -2.5625 0.164062 -2.597656 0.1875 -2.640625 C 0.226562 -2.703125 0.328125 -2.734375 0.484375 -2.734375 L 1.28125 -2.734375 C 1.5 -2.734375 1.710938 -2.65625 1.921875 -2.5 C 2.023438 -2.414062 2.109375 -2.304688 2.171875 -2.171875 Z M 1.28125 -1.421875 C 1.351562 -1.421875 1.425781 -1.445312 1.5 -1.5 C 1.570312 -1.550781 1.609375 -1.628906 1.609375 -1.734375 C 1.609375 -1.847656 1.570312 -1.929688 1.5 -1.984375 C 1.425781 -2.046875 1.351562 -2.078125 1.28125 -2.078125 L 0.8125 -2.078125 L 0.8125 -1.421875 Z M 1.28125 -1.421875 "/></g></g></g><g fill="#ff3131" fill-opacity="1"><g transform="translate(80.838846, 131.364271)"><g><path d="M 1.84375 -2.625 C 1.863281 -2.664062 1.894531 -2.691406 1.9375 -2.703125 C 1.988281 -2.722656 2.050781 -2.734375 2.125 -2.734375 C 2.195312 -2.734375 2.253906 -2.726562 2.296875 -2.71875 C 2.335938 -2.707031 2.367188 -2.691406 2.390625 -2.671875 C 2.410156 -2.648438 2.425781 -2.625 2.4375 -2.59375 C 2.445312 -2.550781 2.453125 -2.488281 2.453125 -2.40625 L 2.453125 -0.328125 C 2.453125 -0.273438 2.453125 -0.234375 2.453125 -0.203125 C 2.453125 -0.171875 2.441406 -0.140625 2.421875 -0.109375 C 2.390625 -0.0351562 2.289062 0 2.125 0 C 1.945312 0 1.847656 -0.046875 1.828125 -0.140625 C 1.804688 -0.179688 1.796875 -0.25 1.796875 -0.34375 L 1.796875 -1.09375 L 0.8125 -1.09375 L 0.8125 -0.328125 C 0.8125 -0.273438 0.804688 -0.234375 0.796875 -0.203125 C 0.796875 -0.171875 0.785156 -0.140625 0.765625 -0.109375 C 0.734375 -0.0351562 0.640625 0 0.484375 0 C 0.304688 0 0.203125 -0.046875 0.171875 -0.140625 C 0.160156 -0.179688 0.15625 -0.25 0.15625 -0.34375 L 0.15625 -2.40625 C 0.15625 -2.46875 0.15625 -2.507812 0.15625 -2.53125 C 0.15625 -2.5625 0.164062 -2.597656 0.1875 -2.640625 C 0.226562 -2.703125 0.328125 -2.734375 0.484375 -2.734375 C 0.660156 -2.734375 0.765625 -2.6875 0.796875 -2.59375 C 0.804688 -2.550781 0.8125 -2.488281 0.8125 -2.40625 L 0.8125 -1.640625 L 1.796875 -1.640625 L 1.796875 -2.40625 C 1.796875 -2.46875 1.796875 -2.507812 1.796875 -2.53125 C 1.804688 -2.5625 1.820312 -2.59375 1.84375 -2.625 Z M 1.84375 -2.625 "/></g></g></g><g fill="#ff3131" fill-opacity="1"><g transform="translate(84.050201, 131.364271)"><g><path d="M 0.15625 -2.40625 C 0.15625 -2.46875 0.15625 -2.507812 0.15625 -2.53125 C 0.15625 -2.5625 0.164062 -2.597656 0.1875 -2.640625 C 0.226562 -2.703125 0.328125 -2.734375 0.484375 -2.734375 C 0.660156 -2.734375 0.765625 -2.6875 0.796875 -2.59375 C 0.804688 -2.550781 0.8125 -2.488281 0.8125 -2.40625 L 0.8125 -0.328125 C 0.8125 -0.265625 0.804688 -0.21875 0.796875 -0.1875 C 0.796875 -0.164062 0.785156 -0.132812 0.765625 -0.09375 C 0.734375 -0.03125 0.640625 0 0.484375 0 C 0.304688 0 0.203125 -0.046875 0.171875 -0.140625 C 0.160156 -0.179688 0.15625 -0.242188 0.15625 -0.328125 Z M 0.15625 -2.40625 "/></g></g></g><g fill="#ff3131" fill-opacity="1"><g transform="translate(85.612981, 131.364271)"><g><path d="M 0.8125 -0.546875 L 1.828125 -0.546875 C 1.910156 -0.546875 1.96875 -0.535156 2 -0.515625 C 2.039062 -0.503906 2.066406 -0.476562 2.078125 -0.4375 C 2.085938 -0.394531 2.09375 -0.335938 2.09375 -0.265625 C 2.09375 -0.203125 2.085938 -0.148438 2.078125 -0.109375 C 2.066406 -0.078125 2.046875 -0.0507812 2.015625 -0.03125 C 1.972656 -0.0078125 1.910156 0 1.828125 0 L 0.484375 0 C 0.304688 0 0.203125 -0.046875 0.171875 -0.140625 C 0.160156 -0.179688 0.15625 -0.242188 0.15625 -0.328125 L 0.15625 -2.40625 C 0.15625 -2.46875 0.15625 -2.507812 0.15625 -2.53125 C 0.15625 -2.5625 0.164062 -2.597656 0.1875 -2.640625 C 0.226562 -2.703125 0.328125 -2.734375 0.484375 -2.734375 C 0.660156 -2.734375 0.765625 -2.6875 0.796875 -2.59375 C 0.804688 -2.550781 0.8125 -2.488281 0.8125 -2.40625 Z M 0.8125 -0.546875 "/></g></g></g><g fill="#ff3131" fill-opacity="1"><g transform="translate(88.406599, 131.364271)"><g><path d="M 0.15625 -2.40625 C 0.15625 -2.46875 0.15625 -2.507812 0.15625 -2.53125 C 0.15625 -2.5625 0.164062 -2.597656 0.1875 -2.640625 C 0.226562 -2.703125 0.328125 -2.734375 0.484375 -2.734375 C 0.660156 -2.734375 0.765625 -2.6875 0.796875 -2.59375 C 0.804688 -2.550781 0.8125 -2.488281 0.8125 -2.40625 L 0.8125 -0.328125 C 0.8125 -0.265625 0.804688 -0.21875 0.796875 -0.1875 C 0.796875 -0.164062 0.785156 -0.132812 0.765625 -0.09375 C 0.734375 -0.03125 0.640625 0 0.484375 0 C 0.304688 0 0.203125 -0.046875 0.171875 -0.140625 C 0.160156 -0.179688 0.15625 -0.242188 0.15625 -0.328125 Z M 0.15625 -2.40625 "/></g></g></g><g fill="#ff3131" fill-opacity="1"><g transform="translate(89.969379, 131.364271)"><g><path d="M 2.171875 -2.171875 C 2.234375 -2.046875 2.265625 -1.898438 2.265625 -1.734375 C 2.265625 -1.578125 2.234375 -1.429688 2.171875 -1.296875 C 2.109375 -1.171875 2.023438 -1.070312 1.921875 -1 C 1.710938 -0.832031 1.5 -0.75 1.28125 -0.75 L 0.8125 -0.75 L 0.8125 -0.328125 C 0.8125 -0.273438 0.804688 -0.234375 0.796875 -0.203125 C 0.796875 -0.171875 0.785156 -0.140625 0.765625 -0.109375 C 0.734375 -0.0351562 0.640625 0 0.484375 0 C 0.304688 0 0.203125 -0.046875 0.171875 -0.140625 C 0.160156 -0.179688 0.15625 -0.25 0.15625 -0.34375 L 0.15625 -2.40625 C 0.15625 -2.46875 0.15625 -2.507812 0.15625 -2.53125 C 0.15625 -2.5625 0.164062 -2.597656 0.1875 -2.640625 C 0.226562 -2.703125 0.328125 -2.734375 0.484375 -2.734375 L 1.28125 -2.734375 C 1.5 -2.734375 1.710938 -2.65625 1.921875 -2.5 C 2.023438 -2.414062 2.109375 -2.304688 2.171875 -2.171875 Z M 1.28125 -1.421875 C 1.351562 -1.421875 1.425781 -1.445312 1.5 -1.5 C 1.570312 -1.550781 1.609375 -1.628906 1.609375 -1.734375 C 1.609375 -1.847656 1.570312 -1.929688 1.5 -1.984375 C 1.425781 -2.046875 1.351562 -2.078125 1.28125 -2.078125 L 0.8125 -2.078125 L 0.8125 -1.421875 Z M 1.28125 -1.421875 "/></g></g></g><g fill="#ff3131" fill-opacity="1"><g transform="translate(92.930839, 131.364271)"><g><path d="M 2.171875 -2.171875 C 2.234375 -2.046875 2.265625 -1.898438 2.265625 -1.734375 C 2.265625 -1.578125 2.234375 -1.429688 2.171875 -1.296875 C 2.109375 -1.171875 2.023438 -1.070312 1.921875 -1 C 1.710938 -0.832031 1.5 -0.75 1.28125 -0.75 L 0.8125 -0.75 L 0.8125 -0.328125 C 0.8125 -0.273438 0.804688 -0.234375 0.796875 -0.203125 C 0.796875 -0.171875 0.785156 -0.140625 0.765625 -0.109375 C 0.734375 -0.0351562 0.640625 0 0.484375 0 C 0.304688 0 0.203125 -0.046875 0.171875 -0.140625 C 0.160156 -0.179688 0.15625 -0.25 0.15625 -0.34375 L 0.15625 -2.40625 C 0.15625 -2.46875 0.15625 -2.507812 0.15625 -2.53125 C 0.15625 -2.5625 0.164062 -2.597656 0.1875 -2.640625 C 0.226562 -2.703125 0.328125 -2.734375 0.484375 -2.734375 L 1.28125 -2.734375 C 1.5 -2.734375 1.710938 -2.65625 1.921875 -2.5 C 2.023438 -2.414062 2.109375 -2.304688 2.171875 -2.171875 Z M 1.28125 -1.421875 C 1.351562 -1.421875 1.425781 -1.445312 1.5 -1.5 C 1.570312 -1.550781 1.609375 -1.628906 1.609375 -1.734375 C 1.609375 -1.847656 1.570312 -1.929688 1.5 -1.984375 C 1.425781 -2.046875 1.351562 -2.078125 1.28125 -2.078125 L 0.8125 -2.078125 L 0.8125 -1.421875 Z M 1.28125 -1.421875 "/></g></g></g><g fill="#ff3131" fill-opacity="1"><g transform="translate(95.892299, 131.364271)"><g><path d="M 1.84375 -2.625 C 1.863281 -2.664062 1.894531 -2.691406 1.9375 -2.703125 C 1.988281 -2.722656 2.050781 -2.734375 2.125 -2.734375 C 2.195312 -2.734375 2.253906 -2.726562 2.296875 -2.71875 C 2.335938 -2.707031 2.367188 -2.691406 2.390625 -2.671875 C 2.410156 -2.648438 2.425781 -2.625 2.4375 -2.59375 C 2.445312 -2.550781 2.453125 -2.488281 2.453125 -2.40625 L 2.453125 -0.328125 C 2.453125 -0.273438 2.453125 -0.234375 2.453125 -0.203125 C 2.453125 -0.171875 2.441406 -0.140625 2.421875 -0.109375 C 2.390625 -0.0351562 2.289062 0 2.125 0 C 1.945312 0 1.847656 -0.046875 1.828125 -0.140625 C 1.804688 -0.179688 1.796875 -0.25 1.796875 -0.34375 L 1.796875 -1.09375 L 0.8125 -1.09375 L 0.8125 -0.328125 C 0.8125 -0.273438 0.804688 -0.234375 0.796875 -0.203125 C 0.796875 -0.171875 0.785156 -0.140625 0.765625 -0.109375 C 0.734375 -0.0351562 0.640625 0 0.484375 0 C 0.304688 0 0.203125 -0.046875 0.171875 -0.140625 C 0.160156 -0.179688 0.15625 -0.25 0.15625 -0.34375 L 0.15625 -2.40625 C 0.15625 -2.46875 0.15625 -2.507812 0.15625 -2.53125 C 0.15625 -2.5625 0.164062 -2.597656 0.1875 -2.640625 C 0.226562 -2.703125 0.328125 -2.734375 0.484375 -2.734375 C 0.660156 -2.734375 0.765625 -2.6875 0.796875 -2.59375 C 0.804688 -2.550781 0.8125 -2.488281 0.8125 -2.40625 L 0.8125 -1.640625 L 1.796875 -1.640625 L 1.796875 -2.40625 C 1.796875 -2.46875 1.796875 -2.507812 1.796875 -2.53125 C 1.804688 -2.5625 1.820312 -2.59375 1.84375 -2.625 Z M 1.84375 -2.625 "/></g></g></g><g fill="#ff3131" fill-opacity="1"><g transform="translate(99.103654, 131.364271)"><g><path d="M 0.15625 -2.40625 C 0.15625 -2.46875 0.15625 -2.507812 0.15625 -2.53125 C 0.15625 -2.5625 0.164062 -2.597656 0.1875 -2.640625 C 0.226562 -2.703125 0.328125 -2.734375 0.484375 -2.734375 C 0.660156 -2.734375 0.765625 -2.6875 0.796875 -2.59375 C 0.804688 -2.550781 0.8125 -2.488281 0.8125 -2.40625 L 0.8125 -0.328125 C 0.8125 -0.265625 0.804688 -0.21875 0.796875 -0.1875 C 0.796875 -0.164062 0.785156 -0.132812 0.765625 -0.09375 C 0.734375 -0.03125 0.640625 0 0.484375 0 C 0.304688 0 0.203125 -0.046875 0.171875 -0.140625 C 0.160156 -0.179688 0.15625 -0.242188 0.15625 -0.328125 Z M 0.15625 -2.40625 "/></g></g></g><g fill="#ff3131" fill-opacity="1"><g transform="translate(100.666434, 131.364271)"><g><path d="M 1.90625 -2.625 C 1.9375 -2.664062 1.972656 -2.691406 2.015625 -2.703125 C 2.066406 -2.722656 2.128906 -2.734375 2.203125 -2.734375 C 2.273438 -2.734375 2.332031 -2.726562 2.375 -2.71875 C 2.414062 -2.707031 2.445312 -2.691406 2.46875 -2.671875 C 2.488281 -2.648438 2.503906 -2.625 2.515625 -2.59375 C 2.535156 -2.550781 2.546875 -2.488281 2.546875 -2.40625 L 2.546875 -0.328125 C 2.546875 -0.265625 2.539062 -0.21875 2.53125 -0.1875 C 2.53125 -0.164062 2.519531 -0.132812 2.5 -0.09375 C 2.46875 -0.03125 2.367188 0 2.203125 0 C 2.109375 0 2.039062 -0.00390625 2 -0.015625 C 1.96875 -0.0351562 1.9375 -0.0625 1.90625 -0.09375 C 1.351562 -0.84375 0.988281 -1.332031 0.8125 -1.5625 L 0.8125 -0.328125 C 0.8125 -0.265625 0.804688 -0.21875 0.796875 -0.1875 C 0.796875 -0.164062 0.785156 -0.132812 0.765625 -0.09375 C 0.734375 -0.03125 0.632812 0 0.46875 0 C 0.320312 0 0.226562 -0.03125 0.1875 -0.09375 C 0.164062 -0.132812 0.15625 -0.171875 0.15625 -0.203125 C 0.15625 -0.234375 0.15625 -0.273438 0.15625 -0.328125 L 0.15625 -2.421875 C 0.15625 -2.515625 0.164062 -2.582031 0.1875 -2.625 C 0.207031 -2.664062 0.238281 -2.691406 0.28125 -2.703125 C 0.332031 -2.722656 0.394531 -2.734375 0.46875 -2.734375 C 0.550781 -2.734375 0.613281 -2.722656 0.65625 -2.703125 C 0.695312 -2.691406 0.726562 -2.679688 0.75 -2.671875 C 0.757812 -2.660156 0.785156 -2.625 0.828125 -2.5625 C 1.347656 -1.851562 1.695312 -1.382812 1.875 -1.15625 L 1.875 -2.421875 C 1.875 -2.515625 1.882812 -2.582031 1.90625 -2.625 Z M 1.90625 -2.625 "/></g></g></g><g fill="#ff3131" fill-opacity="1"><g transform="translate(103.956115, 131.364271)"><g><path d="M 0.8125 -0.65625 L 1.953125 -0.65625 C 2.015625 -0.65625 2.054688 -0.65625 2.078125 -0.65625 C 2.109375 -0.65625 2.144531 -0.644531 2.1875 -0.625 C 2.257812 -0.582031 2.296875 -0.484375 2.296875 -0.328125 C 2.296875 -0.148438 2.25 -0.046875 2.15625 -0.015625 C 2.113281 -0.00390625 2.046875 0 1.953125 0 L 0.484375 0 C 0.304688 0 0.203125 -0.046875 0.171875 -0.140625 C 0.160156 -0.179688 0.15625 -0.242188 0.15625 -0.328125 L 0.15625 -2.40625 C 0.15625 -2.53125 0.175781 -2.613281 0.21875 -2.65625 C 0.269531 -2.707031 0.359375 -2.734375 0.484375 -2.734375 L 1.953125 -2.734375 C 2.015625 -2.734375 2.054688 -2.726562 2.078125 -2.71875 C 2.109375 -2.71875 2.144531 -2.710938 2.1875 -2.703125 C 2.257812 -2.660156 2.296875 -2.5625 2.296875 -2.40625 C 2.296875 -2.226562 2.25 -2.125 2.15625 -2.09375 C 2.113281 -2.082031 2.046875 -2.078125 1.953125 -2.078125 L 0.8125 -2.078125 L 0.8125 -1.703125 L 1.546875 -1.703125 C 1.609375 -1.703125 1.648438 -1.695312 1.671875 -1.6875 C 1.703125 -1.6875 1.738281 -1.675781 1.78125 -1.65625 C 1.84375 -1.625 1.875 -1.523438 1.875 -1.359375 C 1.875 -1.191406 1.828125 -1.09375 1.734375 -1.0625 C 1.691406 -1.039062 1.628906 -1.03125 1.546875 -1.03125 L 0.8125 -1.03125 Z M 0.8125 -0.65625 "/></g></g></g><g fill="#ff3131" fill-opacity="1"><g transform="translate(106.93995, 131.364271)"><g><path d="M 0.1875 -0.390625 C 0.125 -0.460938 0.09375 -0.53125 0.09375 -0.59375 C 0.09375 -0.65625 0.144531 -0.738281 0.25 -0.84375 C 0.3125 -0.90625 0.378906 -0.9375 0.453125 -0.9375 C 0.523438 -0.9375 0.625 -0.875 0.75 -0.75 C 0.78125 -0.707031 0.828125 -0.664062 0.890625 -0.625 C 0.953125 -0.59375 1.015625 -0.578125 1.078125 -0.578125 C 1.304688 -0.578125 1.421875 -0.671875 1.421875 -0.859375 C 1.421875 -0.910156 1.390625 -0.957031 1.328125 -1 C 1.265625 -1.039062 1.179688 -1.066406 1.078125 -1.078125 C 0.984375 -1.097656 0.878906 -1.128906 0.765625 -1.171875 C 0.660156 -1.210938 0.5625 -1.257812 0.46875 -1.3125 C 0.375 -1.363281 0.296875 -1.441406 0.234375 -1.546875 C 0.171875 -1.660156 0.140625 -1.800781 0.140625 -1.96875 C 0.140625 -2.1875 0.21875 -2.375 0.375 -2.53125 C 0.539062 -2.695312 0.765625 -2.78125 1.046875 -2.78125 C 1.203125 -2.78125 1.335938 -2.757812 1.453125 -2.71875 C 1.578125 -2.6875 1.664062 -2.648438 1.71875 -2.609375 L 1.8125 -2.53125 C 1.882812 -2.457031 1.921875 -2.394531 1.921875 -2.34375 C 1.921875 -2.300781 1.894531 -2.234375 1.84375 -2.140625 C 1.75 -2.015625 1.660156 -1.953125 1.578125 -1.953125 C 1.523438 -1.953125 1.457031 -1.976562 1.375 -2.03125 C 1.375 -2.039062 1.363281 -2.054688 1.34375 -2.078125 C 1.320312 -2.097656 1.300781 -2.113281 1.28125 -2.125 C 1.226562 -2.15625 1.160156 -2.171875 1.078125 -2.171875 C 0.992188 -2.171875 0.925781 -2.148438 0.875 -2.109375 C 0.820312 -2.066406 0.796875 -2.007812 0.796875 -1.9375 C 0.796875 -1.875 0.828125 -1.820312 0.890625 -1.78125 C 0.953125 -1.738281 1.03125 -1.707031 1.125 -1.6875 C 1.21875 -1.675781 1.320312 -1.65625 1.4375 -1.625 C 1.550781 -1.59375 1.65625 -1.554688 1.75 -1.515625 C 1.84375 -1.472656 1.921875 -1.394531 1.984375 -1.28125 C 2.046875 -1.164062 2.078125 -1.023438 2.078125 -0.859375 C 2.078125 -0.703125 2.046875 -0.5625 1.984375 -0.4375 C 1.921875 -0.320312 1.835938 -0.226562 1.734375 -0.15625 C 1.535156 -0.03125 1.320312 0.03125 1.09375 0.03125 C 0.96875 0.03125 0.851562 0.0195312 0.75 0 C 0.644531 -0.03125 0.5625 -0.0664062 0.5 -0.109375 C 0.363281 -0.191406 0.269531 -0.269531 0.21875 -0.34375 Z M 0.1875 -0.390625 "/></g></g></g></svg>